<svg width="28" height="28" xmlns="http://www.w3.org/2000/svg"><g fill="none" fill-rule="evenodd"><rect fill="#FE8A4C" width="28" height="28" rx="6"/><path d="M6.822 18.536c.74 0 1.367.265 1.878.793.518.514.777 1.14.777 1.878a2.58 2.58 0 01-.777 1.888c-.511.514-1.137.77-1.878.77a2.533 2.533 0 01-1.867-.77 2.6 2.6 0 01-.766-1.888c0-.738.255-1.364.766-1.878a2.498 2.498 0 011.867-.793zm-2.544-6.983a.977.977 0 01.644-.335v-.011H6.01c2.97 0 5.511 1.057 7.622 3.173 2.111 2.1 3.178 4.644 3.2 7.63v1.062h-.011a.975.975 0 01-.29.615c-.17.171-.377.272-.621.302v.01h-1.856a1.035 1.035 0 01-.678-.267 1.067 1.067 0 01-.333-.66h-.012v-1.061h.012c-.022-1.93-.715-3.58-2.078-4.95-1.385-1.363-3.037-2.044-4.956-2.044h-.043v.011H4.922v-.011a1.1 1.1 0 01-.622-.29.937.937 0 01-.278-.626H4v-1.866c.015-.261.107-.488.278-.682zM4 6.893V5.018c.015-.261.107-.488.278-.682A.977.977 0 014.922 4H6.01c4.94 0 9.17 1.758 12.689 5.274 3.518 3.523 5.285 7.769 5.3 12.737v1.061h-.011a1.028 1.028 0 01-.911.916V24h-1.856a1.035 1.035 0 01-.678-.268 1.067 1.067 0 01-.333-.66H20.2v-1.06h.01c-.014-3.92-1.41-7.264-4.188-10.034-2.77-2.786-6.107-4.18-10.011-4.18h-.044v.012H4.922v-.011a1.012 1.012 0 01-.622-.29.926.926 0 01-.278-.615H4z" fill="#FFF" fill-rule="nonzero"/></g></svg>